<svg width="108" height="108" viewBox="0 0 108 108" fill="none" xmlns="http://www.w3.org/2000/svg">
<g clip-path="url(#clip0_51_119)">
<path d="M79.925 5H27.275C14.9729 5 5 14.9729 5 27.275V79.925C5 92.2271 14.9729 102.2 27.275 102.2H79.925C92.2271 102.2 102.2 92.2271 102.2 79.925V27.275C102.2 14.9729 92.2271 5 79.925 5Z" fill="#F4EBFB"/>
<path opacity="0.4" d="M33.35 65.75H29.3C27.0632 65.75 25.25 67.5632 25.25 69.8V83.975C25.25 86.2118 27.0632 88.025 29.3 88.025H33.35C35.5868 88.025 37.4 86.2118 37.4 83.975V69.8C37.4 67.5632 35.5868 65.75 33.35 65.75Z" fill="#6D3796"/>
<path opacity="0.7" d="M51.5746 49.55H47.5246C45.2879 49.55 43.4746 51.3633 43.4746 53.6V83.975C43.4746 86.2118 45.2879 88.025 47.5246 88.025H51.5746C53.8114 88.025 55.6246 86.2118 55.6246 83.975V53.6C55.6246 51.3633 53.8114 49.55 51.5746 49.55Z" fill="#6D3796"/>
<path d="M69.8002 33.35H65.7502C63.5134 33.35 61.7002 35.1632 61.7002 37.4V83.975C61.7002 86.2117 63.5134 88.025 65.7502 88.025H69.8002C72.0369 88.025 73.8502 86.2117 73.8502 83.975V37.4C73.8502 35.1632 72.0369 33.35 69.8002 33.35Z" fill="#6D3796"/>
<path d="M67.7746 41.45C75.6032 41.45 81.9496 35.1036 81.9496 27.275C81.9496 19.4463 75.6032 13.1 67.7746 13.1C59.946 13.1 53.5996 19.4463 53.5996 27.275C53.5996 35.1036 59.946 41.45 67.7746 41.45Z" fill="#30C08B"/>
<path d="M62.7129 27.275L66.7629 31.325L73.8504 24.2375" stroke="white" stroke-width="3" stroke-linecap="round" stroke-linejoin="round"/>
</g>
<defs>
<clipPath id="clip0_51_119">
<rect width="108" height="108" fill="white"/>
</clipPath>
</defs>
</svg>
