<svg width="579" height="108" viewBox="0 0 579 108" fill="none" xmlns="http://www.w3.org/2000/svg">
<g clip-path="url(#clip0_41_29)">
<path d="M178.208 87.056C171.552 87.056 165.696 85.616 160.64 82.736C155.648 79.792 151.744 75.696 148.928 70.448C146.176 65.2 144.8 59.088 144.8 52.112C144.8 46.8 145.568 42.032 147.104 37.808C148.704 33.52 150.976 29.872 153.92 26.864C156.864 23.792 160.384 21.424 164.48 19.76C168.64 18.096 173.216 17.264 178.208 17.264C184.992 17.264 190.88 18.704 195.872 21.584C200.864 24.464 204.736 28.528 207.488 33.776C210.304 38.96 211.712 45.04 211.712 52.016C211.712 57.328 210.912 62.128 209.312 66.416C207.712 70.704 205.44 74.384 202.496 77.456C199.552 80.528 196.032 82.896 191.936 84.56C187.84 86.224 183.264 87.056 178.208 87.056ZM178.208 74.384C181.984 74.384 185.184 73.52 187.808 71.792C190.496 70 192.544 67.44 193.952 64.112C195.424 60.72 196.16 56.72 196.16 52.112C196.16 45.072 194.592 39.632 191.456 35.792C188.32 31.888 183.904 29.936 178.208 29.936C174.496 29.936 171.296 30.8 168.608 32.528C165.92 34.256 163.872 36.784 162.464 40.112C161.056 43.44 160.352 47.44 160.352 52.112C160.352 59.088 161.92 64.56 165.056 68.528C168.192 72.432 172.576 74.384 178.208 74.384ZM225.43 104.144C223.062 104.144 221.238 103.504 219.958 102.224C218.742 101.008 218.134 99.184 218.134 96.752V45.392C218.134 43.024 218.742 41.232 219.958 40.016C221.238 38.736 222.998 38.096 225.238 38.096C227.606 38.096 229.398 38.736 230.614 40.016C231.83 41.232 232.438 43.024 232.438 45.392V51.92L231.382 48.176C232.342 45.104 234.262 42.64 237.142 40.784C240.086 38.864 243.446 37.904 247.222 37.904C251.318 37.904 254.902 38.896 257.974 40.88C261.11 42.864 263.542 45.68 265.27 49.328C266.998 52.976 267.862 57.328 267.862 62.384C267.862 67.44 266.998 71.824 265.27 75.536C263.542 79.248 261.142 82.096 258.07 84.08C254.998 86.064 251.382 87.056 247.222 87.056C243.51 87.056 240.214 86.16 237.334 84.368C234.454 82.512 232.502 80.112 231.478 77.168H232.63V96.752C232.63 99.184 231.99 101.008 230.71 102.224C229.494 103.504 227.734 104.144 225.43 104.144ZM242.902 76.208C244.95 76.208 246.742 75.696 248.278 74.672C249.878 73.648 251.094 72.144 251.926 70.16C252.822 68.112 253.27 65.52 253.27 62.384C253.27 57.712 252.31 54.288 250.39 52.112C248.47 49.872 245.974 48.752 242.902 48.752C240.854 48.752 239.03 49.232 237.43 50.192C235.894 51.152 234.678 52.656 233.782 54.704C232.886 56.688 232.438 59.248 232.438 62.384C232.438 67.056 233.398 70.544 235.318 72.848C237.238 75.088 239.766 76.208 242.902 76.208ZM297.368 87.056C291.8 87.056 287 86.064 282.968 84.08C279 82.032 275.928 79.184 273.752 75.536C271.64 71.824 270.584 67.472 270.584 62.48C270.584 57.616 271.608 53.36 273.656 49.712C275.704 46 278.552 43.12 282.2 41.072C285.912 38.96 290.104 37.904 294.776 37.904C298.168 37.904 301.24 38.48 303.992 39.632C306.744 40.72 309.112 42.32 311.096 44.432C313.08 46.48 314.584 49.008 315.608 52.016C316.632 54.96 317.144 58.256 317.144 61.904C317.144 63.12 316.76 64.048 315.992 64.688C315.224 65.264 314.104 65.552 312.632 65.552H282.488V58.064H306.68L305.144 59.408C305.144 56.784 304.76 54.608 303.992 52.88C303.224 51.088 302.104 49.744 300.632 48.848C299.224 47.952 297.464 47.504 295.352 47.504C292.984 47.504 290.968 48.048 289.304 49.136C287.64 50.224 286.36 51.792 285.464 53.84C284.568 55.888 284.12 58.352 284.12 61.232V62C284.12 66.864 285.24 70.448 287.48 72.752C289.784 75.056 293.176 76.208 297.656 76.208C299.192 76.208 300.952 76.016 302.936 75.632C304.92 75.248 306.776 74.64 308.504 73.808C309.976 73.104 311.288 72.88 312.44 73.136C313.592 73.328 314.488 73.84 315.128 74.672C315.768 75.504 316.12 76.464 316.184 77.552C316.312 78.64 316.088 79.728 315.512 80.816C314.936 81.84 313.976 82.704 312.632 83.408C310.456 84.624 307.992 85.52 305.24 86.096C302.552 86.736 299.928 87.056 297.368 87.056ZM329.031 86.864C326.663 86.864 324.839 86.224 323.559 84.944C322.343 83.664 321.735 81.84 321.735 79.472V45.392C321.735 43.024 322.343 41.232 323.559 40.016C324.839 38.736 326.599 38.096 328.839 38.096C331.143 38.096 332.903 38.736 334.119 40.016C335.335 41.232 335.943 43.024 335.943 45.392V50.864L334.887 47.696C336.359 44.56 338.535 42.16 341.415 40.496C344.359 38.768 347.687 37.904 351.399 37.904C355.175 37.904 358.279 38.64 360.711 40.112C363.143 41.52 364.967 43.696 366.183 46.64C367.399 49.52 368.007 53.2 368.007 57.68V79.472C368.007 81.84 367.367 83.664 366.087 84.944C364.872 86.224 363.079 86.864 360.711 86.864C358.407 86.864 356.615 86.224 355.335 84.944C354.119 83.664 353.511 81.84 353.511 79.472V58.352C353.511 55.088 352.903 52.752 351.687 51.344C350.535 49.872 348.743 49.136 346.311 49.136C343.239 49.136 340.775 50.096 338.919 52.016C337.127 53.936 336.231 56.496 336.231 59.696V79.472C336.231 84.4 333.831 86.864 329.031 86.864Z" fill="#30C08B"/>
<path d="M391.338 86.864C388.906 86.864 387.05 86.192 385.77 84.848C384.49 83.504 383.85 81.616 383.85 79.184V25.904C383.85 23.408 384.49 21.52 385.77 20.24C387.114 18.96 389.002 18.32 391.434 18.32H414.762C422.314 18.32 428.138 20.24 432.234 24.08C436.33 27.856 438.378 33.136 438.378 39.92C438.378 46.704 436.33 52.016 432.234 55.856C428.138 59.696 422.314 61.616 414.762 61.616H398.73V79.184C398.73 81.616 398.09 83.504 396.81 84.848C395.594 86.192 393.77 86.864 391.338 86.864ZM398.73 50.096H412.266C416.106 50.096 419.018 49.232 421.002 47.504C423.05 45.776 424.074 43.248 424.074 39.92C424.074 36.592 423.05 34.096 421.002 32.432C419.018 30.768 416.106 29.936 412.266 29.936H398.73V50.096ZM449.062 86.864C446.63 86.864 444.774 86.224 443.494 84.944C442.214 83.664 441.574 81.84 441.574 79.472V45.392C441.574 43.024 442.182 41.232 443.398 40.016C444.678 38.736 446.438 38.096 448.678 38.096C450.982 38.096 452.742 38.736 453.958 40.016C455.174 41.232 455.782 43.024 455.782 45.392V50.384H454.822C455.59 46.544 457.286 43.568 459.91 41.456C462.534 39.344 465.926 38.16 470.086 37.904C471.686 37.776 472.902 38.192 473.734 39.152C474.63 40.048 475.11 41.552 475.174 43.664C475.302 45.648 474.886 47.216 473.926 48.368C473.03 49.52 471.494 50.224 469.318 50.48L467.11 50.672C463.462 50.992 460.742 52.048 458.95 53.84C457.222 55.632 456.358 58.224 456.358 61.616V79.472C456.358 81.84 455.718 83.664 454.438 84.944C453.222 86.224 451.43 86.864 449.062 86.864ZM500.933 87.056C495.365 87.056 490.565 86.064 486.533 84.08C482.565 82.032 479.493 79.184 477.317 75.536C475.205 71.824 474.149 67.472 474.149 62.48C474.149 57.616 475.173 53.36 477.221 49.712C479.269 46 482.117 43.12 485.765 41.072C489.477 38.96 493.669 37.904 498.341 37.904C501.733 37.904 504.805 38.48 507.557 39.632C510.309 40.72 512.677 42.32 514.661 44.432C516.645 46.48 518.149 49.008 519.173 52.016C520.197 54.96 520.709 58.256 520.709 61.904C520.709 63.12 520.325 64.048 519.557 64.688C518.789 65.264 517.669 65.552 516.197 65.552H486.053V58.064H510.245L508.709 59.408C508.709 56.784 508.325 54.608 507.557 52.88C506.789 51.088 505.669 49.744 504.197 48.848C502.789 47.952 501.029 47.504 498.917 47.504C496.549 47.504 494.533 48.048 492.869 49.136C491.205 50.224 489.925 51.792 489.029 53.84C488.133 55.888 487.685 58.352 487.685 61.232V62C487.685 66.864 488.805 70.448 491.045 72.752C493.349 75.056 496.741 76.208 501.221 76.208C502.757 76.208 504.517 76.016 506.501 75.632C508.485 75.248 510.341 74.64 512.069 73.808C513.541 73.104 514.853 72.88 516.005 73.136C517.157 73.328 518.053 73.84 518.693 74.672C519.333 75.504 519.685 76.464 519.749 77.552C519.877 78.64 519.653 79.728 519.077 80.816C518.501 81.84 517.541 82.704 516.197 83.408C514.021 84.624 511.557 85.52 508.805 86.096C506.117 86.736 503.493 87.056 500.933 87.056ZM532.597 104.144C530.229 104.144 528.405 103.504 527.125 102.224C525.909 101.008 525.301 99.184 525.301 96.752V45.392C525.301 43.024 525.909 41.232 527.125 40.016C528.405 38.736 530.165 38.096 532.405 38.096C534.773 38.096 536.565 38.736 537.781 40.016C538.997 41.232 539.605 43.024 539.605 45.392V51.92L538.549 48.176C539.509 45.104 541.429 42.64 544.309 40.784C547.253 38.864 550.613 37.904 554.389 37.904C558.485 37.904 562.069 38.896 565.141 40.88C568.277 42.864 570.709 45.68 572.437 49.328C574.165 52.976 575.029 57.328 575.029 62.384C575.029 67.44 574.165 71.824 572.437 75.536C570.709 79.248 568.309 82.096 565.237 84.08C562.165 86.064 558.549 87.056 554.389 87.056C550.677 87.056 547.381 86.16 544.501 84.368C541.621 82.512 539.669 80.112 538.645 77.168H539.797V96.752C539.797 99.184 539.157 101.008 537.877 102.224C536.661 103.504 534.901 104.144 532.597 104.144ZM550.069 76.208C552.117 76.208 553.909 75.696 555.445 74.672C557.045 73.648 558.261 72.144 559.093 70.16C559.989 68.112 560.437 65.52 560.437 62.384C560.437 57.712 559.477 54.288 557.557 52.112C555.637 49.872 553.141 48.752 550.069 48.752C548.021 48.752 546.197 49.232 544.597 50.192C543.061 51.152 541.845 52.656 540.949 54.704C540.053 56.688 539.605 59.248 539.605 62.384C539.605 67.056 540.565 70.544 542.485 72.848C544.405 75.088 546.933 76.208 550.069 76.208Z" fill="#5E2F7D"/>
<g clip-path="url(#clip1_41_29)">
<path d="M83.25 0H24.75C11.081 0 0 11.081 0 24.75V83.25C0 96.919 11.081 108 24.75 108H83.25C96.919 108 108 96.919 108 83.25V24.75C108 11.081 96.919 0 83.25 0Z" fill="#F4EBFB"/>
<path opacity="0.4" d="M31.5 67.5H27C24.5147 67.5 22.5 69.5147 22.5 72V87.75C22.5 90.2353 24.5147 92.25 27 92.25H31.5C33.9853 92.25 36 90.2353 36 87.75V72C36 69.5147 33.9853 67.5 31.5 67.5Z" fill="#6D3796"/>
<path opacity="0.7" d="M51.75 49.5H47.25C44.7647 49.5 42.75 51.5147 42.75 54V87.75C42.75 90.2353 44.7647 92.25 47.25 92.25H51.75C54.2353 92.25 56.25 90.2353 56.25 87.75V54C56.25 51.5147 54.2353 49.5 51.75 49.5Z" fill="#6D3796"/>
<path d="M72 31.5H67.5C65.0147 31.5 63 33.5147 63 36V87.75C63 90.2353 65.0147 92.25 67.5 92.25H72C74.4853 92.25 76.5 90.2353 76.5 87.75V36C76.5 33.5147 74.4853 31.5 72 31.5Z" fill="#6D3796"/>
<path d="M69.75 40.5C78.4485 40.5 85.5 33.4485 85.5 24.75C85.5 16.0515 78.4485 9 69.75 9C61.0515 9 54 16.0515 54 24.75C54 33.4485 61.0515 40.5 69.75 40.5Z" fill="#30C08B"/>
<path d="M64.125 24.75L68.625 29.25L76.5 21.375" stroke="white" stroke-width="3" stroke-linecap="round" stroke-linejoin="round"/>
</g>
</g>
<defs>
<clipPath id="clip0_41_29">
<rect width="579" height="108" fill="white"/>
</clipPath>
<clipPath id="clip1_41_29">
<rect width="108" height="108" fill="white"/>
</clipPath>
</defs>
</svg>
