<svg width="441" height="108" viewBox="0 0 441 108" fill="none" xmlns="http://www.w3.org/2000/svg">
<path d="M38.208 86.056C31.552 86.056 25.696 84.616 20.64 81.736C15.648 78.792 11.744 74.696 8.928 69.448C6.176 64.2 4.8 58.088 4.8 51.112C4.8 45.8 5.568 41.032 7.104 36.808C8.704 32.52 10.976 28.872 13.92 25.864C16.864 22.792 20.384 20.424 24.48 18.76C28.64 17.096 33.216 16.264 38.208 16.264C44.992 16.264 50.88 17.704 55.872 20.584C60.864 23.464 64.736 27.528 67.488 32.776C70.304 37.96 71.712 44.04 71.712 51.016C71.712 56.328 70.912 61.128 69.312 65.416C67.712 69.704 65.44 73.384 62.496 76.456C59.552 79.528 56.032 81.896 51.936 83.56C47.84 85.224 43.264 86.056 38.208 86.056ZM38.208 73.384C41.984 73.384 45.184 72.52 47.808 70.792C50.496 69 52.544 66.44 53.952 63.112C55.424 59.72 56.16 55.72 56.16 51.112C56.16 44.072 54.592 38.632 51.456 34.792C48.32 30.888 43.904 28.936 38.208 28.936C34.496 28.936 31.296 29.8 28.608 31.528C25.92 33.256 23.872 35.784 22.464 39.112C21.056 42.44 20.352 46.44 20.352 51.112C20.352 58.088 21.92 63.56 25.056 67.528C28.192 71.432 32.576 73.384 38.208 73.384ZM85.4303 103.144C83.0623 103.144 81.2383 102.504 79.9583 101.224C78.7423 100.008 78.1343 98.184 78.1343 95.752V44.392C78.1343 42.024 78.7423 40.232 79.9583 39.016C81.2383 37.736 82.9983 37.096 85.2383 37.096C87.6063 37.096 89.3983 37.736 90.6143 39.016C91.8303 40.232 92.4383 42.024 92.4383 44.392V50.92L91.3823 47.176C92.3423 44.104 94.2623 41.64 97.1423 39.784C100.086 37.864 103.446 36.904 107.222 36.904C111.318 36.904 114.902 37.896 117.974 39.88C121.11 41.864 123.542 44.68 125.27 48.328C126.998 51.976 127.862 56.328 127.862 61.384C127.862 66.44 126.998 70.824 125.27 74.536C123.542 78.248 121.142 81.096 118.07 83.08C114.998 85.064 111.382 86.056 107.222 86.056C103.51 86.056 100.214 85.16 97.3343 83.368C94.4543 81.512 92.5023 79.112 91.4783 76.168H92.6303V95.752C92.6303 98.184 91.9903 100.008 90.7103 101.224C89.4943 102.504 87.7343 103.144 85.4303 103.144ZM102.902 75.208C104.95 75.208 106.742 74.696 108.278 73.672C109.878 72.648 111.094 71.144 111.926 69.16C112.822 67.112 113.27 64.52 113.27 61.384C113.27 56.712 112.31 53.288 110.39 51.112C108.47 48.872 105.974 47.752 102.902 47.752C100.854 47.752 99.0303 48.232 97.4303 49.192C95.8943 50.152 94.6783 51.656 93.7823 53.704C92.8863 55.688 92.4383 58.248 92.4383 61.384C92.4383 66.056 93.3983 69.544 95.3183 71.848C97.2383 74.088 99.7663 75.208 102.902 75.208ZM157.368 86.056C151.8 86.056 147 85.064 142.968 83.08C139 81.032 135.928 78.184 133.752 74.536C131.64 70.824 130.584 66.472 130.584 61.48C130.584 56.616 131.608 52.36 133.656 48.712C135.704 45 138.552 42.12 142.2 40.072C145.912 37.96 150.104 36.904 154.776 36.904C158.168 36.904 161.24 37.48 163.992 38.632C166.744 39.72 169.112 41.32 171.096 43.432C173.08 45.48 174.584 48.008 175.608 51.016C176.632 53.96 177.144 57.256 177.144 60.904C177.144 62.12 176.76 63.048 175.992 63.688C175.224 64.264 174.104 64.552 172.632 64.552H142.488V57.064H166.68L165.144 58.408C165.144 55.784 164.76 53.608 163.992 51.88C163.224 50.088 162.104 48.744 160.632 47.848C159.224 46.952 157.464 46.504 155.352 46.504C152.984 46.504 150.968 47.048 149.304 48.136C147.64 49.224 146.36 50.792 145.464 52.84C144.568 54.888 144.12 57.352 144.12 60.232V61C144.12 65.864 145.24 69.448 147.48 71.752C149.784 74.056 153.176 75.208 157.656 75.208C159.192 75.208 160.952 75.016 162.936 74.632C164.92 74.248 166.776 73.64 168.504 72.808C169.976 72.104 171.288 71.88 172.44 72.136C173.592 72.328 174.488 72.84 175.128 73.672C175.768 74.504 176.12 75.464 176.184 76.552C176.312 77.64 176.088 78.728 175.512 79.816C174.936 80.84 173.976 81.704 172.632 82.408C170.456 83.624 167.992 84.52 165.24 85.096C162.552 85.736 159.928 86.056 157.368 86.056ZM189.031 85.864C186.663 85.864 184.839 85.224 183.559 83.944C182.343 82.664 181.735 80.84 181.735 78.472V44.392C181.735 42.024 182.343 40.232 183.559 39.016C184.839 37.736 186.599 37.096 188.839 37.096C191.143 37.096 192.903 37.736 194.119 39.016C195.335 40.232 195.943 42.024 195.943 44.392V49.864L194.887 46.696C196.359 43.56 198.535 41.16 201.415 39.496C204.359 37.768 207.687 36.904 211.399 36.904C215.175 36.904 218.279 37.64 220.711 39.112C223.143 40.52 224.967 42.696 226.183 45.64C227.399 48.52 228.007 52.2 228.007 56.68V78.472C228.007 80.84 227.367 82.664 226.087 83.944C224.872 85.224 223.079 85.864 220.711 85.864C218.407 85.864 216.615 85.224 215.335 83.944C214.119 82.664 213.511 80.84 213.511 78.472V57.352C213.511 54.088 212.903 51.752 211.687 50.344C210.535 48.872 208.743 48.136 206.311 48.136C203.239 48.136 200.775 49.096 198.919 51.016C197.127 52.936 196.231 55.496 196.231 58.696V78.472C196.231 83.4 193.831 85.864 189.031 85.864Z" fill="#30C08B"/>
<path d="M251.338 85.864C248.906 85.864 247.05 85.192 245.77 83.848C244.49 82.504 243.85 80.616 243.85 78.184V24.904C243.85 22.408 244.49 20.52 245.77 19.24C247.114 17.96 249.002 17.32 251.434 17.32H274.762C282.314 17.32 288.138 19.24 292.234 23.08C296.33 26.856 298.378 32.136 298.378 38.92C298.378 45.704 296.33 51.016 292.234 54.856C288.138 58.696 282.314 60.616 274.762 60.616H258.73V78.184C258.73 80.616 258.09 82.504 256.81 83.848C255.594 85.192 253.77 85.864 251.338 85.864ZM258.73 49.096H272.266C276.106 49.096 279.018 48.232 281.002 46.504C283.05 44.776 284.074 42.248 284.074 38.92C284.074 35.592 283.05 33.096 281.002 31.432C279.018 29.768 276.106 28.936 272.266 28.936H258.73V49.096ZM309.062 85.864C306.63 85.864 304.774 85.224 303.494 83.944C302.214 82.664 301.574 80.84 301.574 78.472V44.392C301.574 42.024 302.182 40.232 303.398 39.016C304.678 37.736 306.438 37.096 308.678 37.096C310.982 37.096 312.742 37.736 313.958 39.016C315.174 40.232 315.782 42.024 315.782 44.392V49.384H314.822C315.59 45.544 317.286 42.568 319.91 40.456C322.534 38.344 325.926 37.16 330.086 36.904C331.686 36.776 332.902 37.192 333.734 38.152C334.63 39.048 335.11 40.552 335.174 42.664C335.302 44.648 334.886 46.216 333.926 47.368C333.03 48.52 331.494 49.224 329.318 49.48L327.11 49.672C323.462 49.992 320.742 51.048 318.95 52.84C317.222 54.632 316.358 57.224 316.358 60.616V78.472C316.358 80.84 315.718 82.664 314.438 83.944C313.222 85.224 311.43 85.864 309.062 85.864ZM360.933 86.056C355.365 86.056 350.565 85.064 346.533 83.08C342.565 81.032 339.493 78.184 337.317 74.536C335.205 70.824 334.149 66.472 334.149 61.48C334.149 56.616 335.173 52.36 337.221 48.712C339.269 45 342.117 42.12 345.765 40.072C349.477 37.96 353.669 36.904 358.341 36.904C361.733 36.904 364.805 37.48 367.557 38.632C370.309 39.72 372.677 41.32 374.661 43.432C376.645 45.48 378.149 48.008 379.173 51.016C380.197 53.96 380.709 57.256 380.709 60.904C380.709 62.12 380.325 63.048 379.557 63.688C378.789 64.264 377.669 64.552 376.197 64.552H346.053V57.064H370.245L368.709 58.408C368.709 55.784 368.325 53.608 367.557 51.88C366.789 50.088 365.669 48.744 364.197 47.848C362.789 46.952 361.029 46.504 358.917 46.504C356.549 46.504 354.533 47.048 352.869 48.136C351.205 49.224 349.925 50.792 349.029 52.84C348.133 54.888 347.685 57.352 347.685 60.232V61C347.685 65.864 348.805 69.448 351.045 71.752C353.349 74.056 356.741 75.208 361.221 75.208C362.757 75.208 364.517 75.016 366.501 74.632C368.485 74.248 370.341 73.64 372.069 72.808C373.541 72.104 374.853 71.88 376.005 72.136C377.157 72.328 378.053 72.84 378.693 73.672C379.333 74.504 379.685 75.464 379.749 76.552C379.877 77.64 379.653 78.728 379.077 79.816C378.501 80.84 377.541 81.704 376.197 82.408C374.021 83.624 371.557 84.52 368.805 85.096C366.117 85.736 363.493 86.056 360.933 86.056ZM392.597 103.144C390.229 103.144 388.405 102.504 387.125 101.224C385.909 100.008 385.301 98.184 385.301 95.752V44.392C385.301 42.024 385.909 40.232 387.125 39.016C388.405 37.736 390.165 37.096 392.405 37.096C394.773 37.096 396.565 37.736 397.781 39.016C398.997 40.232 399.605 42.024 399.605 44.392V50.92L398.549 47.176C399.509 44.104 401.429 41.64 404.309 39.784C407.253 37.864 410.613 36.904 414.389 36.904C418.485 36.904 422.069 37.896 425.141 39.88C428.277 41.864 430.709 44.68 432.437 48.328C434.165 51.976 435.029 56.328 435.029 61.384C435.029 66.44 434.165 70.824 432.437 74.536C430.709 78.248 428.309 81.096 425.237 83.08C422.165 85.064 418.549 86.056 414.389 86.056C410.677 86.056 407.381 85.16 404.501 83.368C401.621 81.512 399.669 79.112 398.645 76.168H399.797V95.752C399.797 98.184 399.157 100.008 397.877 101.224C396.661 102.504 394.901 103.144 392.597 103.144ZM410.069 75.208C412.117 75.208 413.909 74.696 415.445 73.672C417.045 72.648 418.261 71.144 419.093 69.16C419.989 67.112 420.437 64.52 420.437 61.384C420.437 56.712 419.477 53.288 417.557 51.112C415.637 48.872 413.141 47.752 410.069 47.752C408.021 47.752 406.197 48.232 404.597 49.192C403.061 50.152 401.845 51.656 400.949 53.704C400.053 55.688 399.605 58.248 399.605 61.384C399.605 66.056 400.565 69.544 402.485 71.848C404.405 74.088 406.933 75.208 410.069 75.208Z" fill="#5E2F7D"/>
</svg>
