<svg width="1024" height="1024" viewBox="0 0 1024 1024" fill="none" xmlns="http://www.w3.org/2000/svg">
<g clip-path="url(#clip0_51_119)">
<path d="M761.4 50.7H262.2C145.557 50.7 51 145.257 51 261.9V761.1C51 877.742 145.557 972.3 262.2 972.3H761.4C878.042 972.3 972.6 877.742 972.6 761.1V261.9C972.6 145.257 878.042 50.7 761.4 50.7Z" fill="#F4EBFB"/>
<path opacity="0.4" d="M319.799 627H281.399C260.191 627 242.999 644.192 242.999 665.4V799.8C242.999 821.008 260.191 838.2 281.399 838.2H319.799C341.007 838.2 358.199 821.008 358.199 799.8V665.4C358.199 644.192 341.007 627 319.799 627Z" fill="#6D3796"/>
<path opacity="0.7" d="M492.599 473.4H454.199C432.991 473.4 415.799 490.592 415.799 511.8V799.8C415.799 821.008 432.991 838.2 454.199 838.2H492.599C513.807 838.2 530.999 821.008 530.999 799.8V511.8C530.999 490.592 513.807 473.4 492.599 473.4Z" fill="#6D3796"/>
<path d="M665.399 319.8H626.999C605.791 319.8 588.599 336.992 588.599 358.2V799.8C588.599 821.008 605.791 838.2 626.999 838.2H665.399C686.606 838.2 703.799 821.008 703.799 799.8V358.2C703.799 336.992 686.606 319.8 665.399 319.8Z" fill="#6D3796"/>
<path d="M646.2 396.6C720.427 396.6 780.6 336.427 780.6 262.2C780.6 187.973 720.427 127.8 646.2 127.8C571.973 127.8 511.8 187.973 511.8 262.2C511.8 336.427 571.973 396.6 646.2 396.6Z" fill="#30C08B"/>
<path d="M598.2 262.2L636.6 300.6L703.8 233.4" stroke="white" stroke-width="20" stroke-linecap="round" stroke-linejoin="round"/>
</g>
<defs>
<clipPath id="clip0_51_119">
<rect width="921.6" height="921.6" fill="white" transform="translate(51 51)"/>
</clipPath>
</defs>
</svg>
