<svg width="108" height="108" viewBox="0 0 108 108" fill="none" xmlns="http://www.w3.org/2000/svg">
<g filter="url(#shadow)">
<rect x="8" y="6" width="92" height="92" rx="22" fill="#F4EBFB"/>
<rect x="8.5" y="6.5" width="91" height="91" rx="21.5" stroke="white" stroke-opacity="0.55"/>
</g>
<g transform="translate(16 14) scale(0.72)">
<path opacity="0.4" d="M31.5 67.5H27C24.5147 67.5 22.5 69.5147 22.5 72V87.75C22.5 90.2353 24.5147 92.25 27 92.25H31.5C33.9853 92.25 36 90.2353 36 87.75V72C36 69.5147 33.9853 67.5 31.5 67.5Z" fill="#6D3796"/>
<path opacity="0.7" d="M51.75 49.5H47.25C44.7647 49.5 42.75 51.5147 42.75 54V87.75C42.75 90.2353 44.7647 92.25 47.25 92.25H51.75C54.2353 92.25 56.25 90.2353 56.25 87.75V54C56.25 51.5147 54.2353 49.5 51.75 49.5Z" fill="#6D3796"/>
<path d="M72 31.5H67.5C65.0147 31.5 63 33.5147 63 36V87.75C63 90.2353 65.0147 92.25 67.5 92.25H72C74.4853 92.25 76.5 90.2353 76.5 87.75V36C76.5 33.5147 74.4853 31.5 72 31.5Z" fill="#6D3796"/>
<path d="M69.75 40.5C78.4485 40.5 85.5 33.4485 85.5 24.75C85.5 16.0515 78.4485 9 69.75 9C61.0515 9 54 16.0515 54 24.75C54 33.4485 61.0515 40.5 69.75 40.5Z" fill="#30C08B"/>
<path d="M64.125 24.75L68.625 29.25L76.5 21.375" stroke="white" stroke-width="3" stroke-linecap="round" stroke-linejoin="round"/>
</g>
<defs>
<filter id="shadow" x="2" y="1" width="104" height="106" filterUnits="userSpaceOnUse" color-interpolation-filters="sRGB">
<feFlood flood-opacity="0" result="BackgroundImageFix"/>
<feColorMatrix in="SourceAlpha" type="matrix" values="0 0 0 0 0 0 0 0 0 0 0 0 0 0 0 0 0 0 127 0" result="hardAlpha"/>
<feOffset dy="3"/>
<feGaussianBlur stdDeviation="3"/>
<feColorMatrix type="matrix" values="0 0 0 0 0.231373 0 0 0 0 0.133333 0 0 0 0 0.294118 0 0 0 0.18 0"/>
<feBlend mode="normal" in2="BackgroundImageFix" result="effect1_dropShadow"/>
<feBlend mode="normal" in="SourceGraphic" in2="effect1_dropShadow" result="shape"/>
</filter>
</defs>
</svg>
